<?xml version="1.0" ?><svg viewBox="0 0 64 64" xmlns="http://www.w3.org/2000/svg"><g id="Like" fill="#EA1653" ><path d="M18.3728,19.8222H11.458c.0029.0366.0212.0681.0212.1055v6.6772a1.35,1.35,0,1,1-2.6992,0V19.9277c0-.0374.0183-.0689.0213-.1055H5.0806A2.4365,2.4365,0,0,0,2.644,22.2585v30.626a2.4364,2.4364,0,0,0,2.4366,2.4362H8.8013c-.003-.0366-.0213-.0681-.0213-.1054V33.2924a1.35,1.35,0,0,1,2.6992,0V55.2153c0,.0373-.0183.0688-.0212.1054h6.9148a3.0682,3.0682,0,0,0,3.0683-3.0681V22.89A3.0682,3.0682,0,0,0,18.3728,19.8222Z"/><path d="M60.5251,27.9765a5.7316,5.7316,0,0,0-4.6552-2.35H48.1257a1.7828,1.7828,0,0,1-1.7148-2.2705L47.47,19.63a7.09,7.09,0,0,0-6.82-9.0307,3.6967,3.6967,0,0,0-3.6924,3.6928,9.9583,9.9583,0,0,1-2.0547,6.0406l-2.9151,3.79a3.88,3.88,0,0,1-3.0546,1.5039H24.14v24.44l3.167,2.113a13.288,13.288,0,0,0,7.4043,2.2442H47.324a10.109,10.109,0,0,0,9.707-7.1621l4.3662-14.1446A5.7292,5.7292,0,0,0,60.5251,27.9765Z"/></g></svg>
