<?xml version="1.0" ?><svg data-name="Layer 1" id="Layer_1" viewBox="0 0 512 512" xmlns="http://www.w3.org/2000/svg"><title/><path d="M468.1,453.49H49.25V58a5.35,5.35,0,0,0-10.7,0V458.85a5.35,5.35,0,0,0,5.35,5.35H468.1a5.36,5.36,0,0,0,0-10.71Z"/><path d="M82.58,413.33a.35.35,0,0,1,0,.08c-.09.12-.17.25-.25.38l0,0a5.39,5.39,0,0,0-.73,2.41v0c0,.08,0,.16,0,.25s0,.14,0,.22v.06c0,.15,0,.31,0,.46v.05c0,.16,0,.31.08.46l0,.05c0,.15.08.3.13.45s0,0,0,.06.11.28.17.42l0,.07a2.42,2.42,0,0,0,.21.39.31.31,0,0,0,0,.1l.23.34a.21.21,0,0,1,0,.06l0,0a4.11,4.11,0,0,0,.38.45h0a5.67,5.67,0,0,0,1.48,1.09l.07,0a4.73,4.73,0,0,0,.47.2l.1,0,.46.14.12,0,.47.08.12,0a5.49,5.49,0,0,0,.58,0H265.25l.58,0h0l.45-.07.11,0,.34-.09.2-.06.24-.09.29-.11.15-.08a2.79,2.79,0,0,0,.34-.18l.11-.06.34-.23.06,0c1.16-.86,23.08-17.46,35.31-47.7,18.85,30.19,40.54,46.62,42,47.7a5.35,5.35,0,0,0,6.38-8.59c-.36-.27-24.9-18.91-43.85-52.81a109.36,109.36,0,0,0,2.54-12.87c1.36-10.18,2.27-23,3.22-36.55,3-43.38,7.2-102.79,30.84-102.79S372.76,266.63,375.8,310c.94,13.54,1.85,26.35,3.22,36.53,6.35,47,40.91,73.18,42.37,74.27a5.35,5.35,0,0,0,6.39-8.59c-.33-.23-32.4-24.52-38.14-67.1-1.34-9.84-2.23-22.49-3.17-35.87-3.7-52.85-7.9-112.76-41.54-112.76s-37.81,59.9-41.52,112.76c-.89,12.68-1.73,24.67-3,34.28a167.24,167.24,0,0,1-10.64-33.67,4.05,4.05,0,0,0-.16-.77c-.61-3.14-1.15-6.34-1.59-9.61-1-7.39-1.85-15.73-2.63-24.68,0-.07,0-.14,0-.21-.93-10.74-1.75-22.37-2.59-34.36-1.61-23.07-3.34-47.75-6.18-71.25a6.37,6.37,0,0,0-.11-.89c-3.21-26.27-7.84-51-15.27-70.4a5.28,5.28,0,0,0-.82-2.1c-9.21-22.87-22.56-37.71-42.52-37.71s-33.35,14.89-42.56,37.82a5.6,5.6,0,0,0-.74,1.88A218.85,218.85,0,0,0,165,132.06a5.43,5.43,0,0,0-.33,1.62c-2.17,11-3.92,22.63-5.38,34.59a3.68,3.68,0,0,0-.07.58c-2.86,23.56-4.59,48.31-6.21,71.45-1.55,22.06-3,42.89-5.21,59.19q-.67,5-1.64,9.81l-.06.32c-13,65.08-61.92,102.23-62.44,102.61l-.05,0-.32.26-.09.08-.29.3-.08.08Zm208.2-37.48H130.34a191.41,191.41,0,0,0,13.51-24.63H292c1.52,3.33,3.11,6.55,4.74,9.65A103.23,103.23,0,0,1,290.78,375.85Zm-135-60H280.13a179.36,179.36,0,0,0,7.42,24.61H148.33A178,178,0,0,0,155.74,315.9Zm18.8-176.64h86.79c1.47,7.9,2.74,16.16,3.85,24.61H170.69C171.8,155.42,173.07,147.16,174.54,139.26Zm9.08-35.33h68.63a204.21,204.21,0,0,1,6.91,24.62H176.71A202.39,202.39,0,0,1,183.62,103.93Zm88.08,130.6H164.16c.57-8,1.17-16.25,1.84-24.62H269.87C270.54,218.28,271.14,226.54,271.7,234.53Zm.75,10.71c.6,8.48,1.19,16.74,1.83,24.62H161.59c.64-7.88,1.23-16.14,1.82-24.62Zm-5.95-70.66c.93,8.15,1.74,16.41,2.47,24.62H166.9c.72-8.21,1.53-16.47,2.47-24.62ZM158.44,300.91c.84-6.22,1.57-13.06,2.24-20.34H275.2c.67,7.28,1.4,14.12,2.24,20.34.19,1.44.41,2.87.64,4.28H157.8C158,303.78,158.24,302.35,158.44,300.91ZM217.93,68.6c13,0,22.6,9.44,29.88,24.62H188.06C195.33,78,205,68.6,217.93,68.6Zm-95,318H284.72a111.4,111.4,0,0,1-21.31,24.61H101.2A197.09,197.09,0,0,0,122.9,386.56Z"/><path d="M283.16,100.71a5.34,5.34,0,0,0,7.44-1.36l28.23-40.84h32.58a5.36,5.36,0,0,0,0-10.71H316a5.39,5.39,0,0,0-4.41,2.31L281.79,93.26A5.36,5.36,0,0,0,283.16,100.71Z"/><path d="M351.41,74.87H328.49a5.36,5.36,0,0,0,0,10.71h22.92a5.36,5.36,0,0,0,0-10.71Z"/><path d="M374.76,180.94a5.26,5.26,0,0,0,3,.94,5.36,5.36,0,0,0,4.41-2.3l28.21-40.85H443a5.35,5.35,0,0,0,0-10.7H407.61a5.34,5.34,0,0,0-4.4,2.31l-29.82,43.15A5.36,5.36,0,0,0,374.76,180.94Z"/><path d="M443,155.1H420.07a5.36,5.36,0,0,0,0,10.71H443a5.36,5.36,0,0,0,0-10.71Z"/></svg>